<?xml version="1.0" standalone="no"?>
<!DOCTYPE svg PUBLIC "-//W3C//DTD SVG 20010904//EN"
 "http://www.w3.org/TR/2001/REC-SVG-20010904/DTD/svg10.dtd">
<svg version="1.0" xmlns="http://www.w3.org/2000/svg"
 width="700.000000pt" height="700.000000pt" viewBox="0 0 700.000000 700.000000"
 preserveAspectRatio="xMidYMid meet">
<metadata>
Created by potrace 1.14, written by Peter Selinger 2001-2017
</metadata>
<g transform="translate(0.000000,700.000000) scale(0.100000,-0.100000)"
fill="#000000" stroke="none">
<path d="M3348 6866 c-88 -29 -172 -81 -226 -141 -43 -47 -114 -183 -315 -605
-25 -52 -84 -176 -132 -275 -48 -99 -111 -229 -140 -290 -307 -640 -283 -595
-311 -596 -13 -1 -27 -2 -31 -3 -10 -2 -95 -16 -143 -22 -19 -3 -46 -7 -60 -9
-56 -9 -227 -35 -260 -39 -19 -2 -51 -7 -70 -10 -19 -3 -53 -8 -75 -11 -22 -3
-83 -12 -135 -20 -52 -7 -115 -17 -140 -20 -25 -3 -52 -8 -60 -10 -8 -2 -37
-6 -65 -10 -27 -3 -75 -10 -105 -15 -59 -10 -95 -15 -205 -31 -38 -5 -81 -11
-95 -14 -14 -2 -74 -11 -135 -20 -60 -9 -121 -18 -135 -20 -14 -2 -45 -7 -70
-10 -246 -33 -434 -239 -435 -475 0 -131 18 -191 85 -289 21 -31 342 -359 713
-729 550 -548 675 -677 672 -694 -3 -12 -7 -40 -10 -63 -3 -22 -8 -47 -10 -55
-2 -8 -7 -33 -10 -55 -3 -23 -7 -50 -9 -60 -2 -11 -7 -40 -11 -65 -4 -25 -9
-52 -10 -61 -2 -9 -6 -34 -9 -55 -8 -49 -75 -442 -80 -469 -2 -11 -7 -40 -10
-65 -3 -25 -8 -56 -11 -70 -3 -14 -25 -146 -50 -295 -25 -148 -47 -281 -49
-295 -45 -242 -51 -348 -25 -429 48 -154 157 -269 314 -332 86 -34 236 -36
330 -4 44 15 157 72 310 155 28 15 228 123 445 240 217 117 418 225 445 240
28 15 85 46 128 69 42 22 112 60 155 83 42 23 103 55 134 72 l58 30 42 -22
c50 -24 225 -118 313 -166 100 -56 166 -91 260 -141 81 -43 180 -97 400 -215
85 -46 131 -71 260 -140 55 -29 132 -71 170 -93 205 -114 301 -144 430 -134
306 26 506 293 451 602 -3 17 -12 71 -20 120 -9 50 -18 99 -20 110 -4 23 -18
113 -21 135 -1 8 -5 29 -8 45 -4 17 -9 44 -11 60 -8 53 -18 119 -22 140 -7 34
-23 129 -28 160 -3 17 -14 86 -26 155 -12 69 -23 136 -25 150 -2 14 -6 39 -9
55 -33 198 -78 465 -81 485 -2 14 -11 64 -19 112 l-15 86 698 699 c623 622
702 705 726 758 78 166 69 338 -23 481 -79 122 -220 212 -360 229 -23 3 -102
14 -175 26 -73 11 -150 22 -172 25 -22 3 -62 9 -90 14 -27 6 -70 12 -95 14
-25 3 -106 15 -180 26 -74 12 -151 23 -170 26 -39 6 -54 8 -151 23 -36 6 -90
13 -120 16 -30 4 -61 8 -69 10 -14 4 -39 8 -127 20 -21 3 -49 7 -63 10 -14 2
-43 7 -65 10 -22 3 -69 10 -105 16 -36 5 -102 14 -147 20 l-81 11 -35 72 c-38
75 -165 338 -252 521 -29 61 -90 187 -135 280 -102 209 -201 417 -245 510 -58
124 -141 289 -160 320 -24 39 -135 145 -152 145 -7 0 -13 3 -13 8 0 4 -18 15
-41 25 -117 51 -262 60 -371 23z m190 -543 c17 -38 72 -153 122 -258 232 -479
218 -450 405 -840 206 -430 264 -542 306 -586 84 -88 175 -137 294 -159 99
-18 94 -17 165 -25 36 -4 67 -8 70 -10 3 -2 29 -6 59 -10 30 -4 63 -9 75 -11
12 -2 41 -7 66 -10 25 -3 56 -7 70 -10 25 -4 132 -20 205 -30 22 -3 47 -7 55
-9 8 -2 39 -7 69 -10 30 -4 63 -9 75 -11 12 -3 41 -7 66 -10 25 -3 83 -12 130
-19 47 -8 105 -17 130 -20 60 -8 100 -14 130 -20 14 -3 45 -7 70 -10 55 -7
168 -23 195 -29 11 -2 43 -7 70 -10 92 -13 120 -18 123 -20 1 -2 -306 -311
-682 -687 -399 -399 -697 -705 -716 -734 -73 -117 -86 -235 -50 -440 11 -66
23 -133 25 -150 3 -16 7 -41 10 -55 3 -14 7 -43 11 -65 3 -22 7 -47 9 -55 2
-8 7 -33 10 -55 3 -23 8 -52 10 -65 3 -14 8 -45 11 -70 3 -25 7 -47 9 -50 2
-3 6 -30 10 -60 4 -30 8 -57 10 -60 3 -5 13 -67 20 -115 1 -11 5 -33 8 -50 4
-16 9 -46 11 -65 2 -19 7 -46 10 -60 3 -14 8 -41 11 -60 2 -19 7 -48 10 -65 8
-46 17 -98 21 -120 35 -202 83 -509 80 -513 -4 -3 -204 99 -231 118 -5 4 -58
32 -116 63 -59 31 -126 67 -150 80 -24 13 -80 43 -124 67 -44 24 -102 55 -130
70 -27 15 -84 45 -125 67 -41 22 -100 54 -130 70 -30 17 -154 83 -275 148
-121 65 -247 132 -280 150 -100 54 -159 69 -265 69 -136 0 -162 -11 -540 -217
-82 -44 -165 -89 -260 -140 -47 -25 -170 -91 -275 -147 -104 -57 -222 -120
-262 -140 -39 -21 -91 -49 -115 -63 -23 -13 -77 -42 -118 -64 -41 -22 -115
-62 -163 -88 -48 -26 -90 -45 -93 -42 -3 2 2 45 11 93 9 49 18 105 21 124 2
19 11 73 19 120 8 47 17 96 19 110 3 14 7 43 11 65 3 22 10 65 15 95 14 75 18
99 25 145 3 22 14 90 25 150 25 149 28 163 35 215 4 24 8 47 10 50 1 3 6 28
10 55 4 28 9 59 11 70 1 11 5 36 8 55 3 19 8 46 11 60 12 62 15 78 20 120 3
25 8 52 10 60 3 8 9 47 15 85 5 39 12 84 16 100 34 171 15 289 -64 410 -25 38
-284 304 -717 735 l-677 675 71 12 c39 6 94 14 123 18 29 3 60 8 68 10 8 2 35
7 60 10 78 11 168 24 204 31 10 2 38 6 62 8 24 3 72 10 106 15 35 6 79 13 98
15 19 3 53 8 75 11 22 4 54 8 70 10 17 3 41 7 55 9 14 3 45 8 70 11 56 8 97
14 130 20 14 3 45 7 70 10 38 4 255 36 340 50 14 2 45 7 70 10 246 33 332 67
437 174 54 55 120 178 311 581 19 41 86 180 148 309 63 128 114 235 114 236 0
2 54 115 120 251 67 137 135 279 153 316 18 37 35 68 38 68 3 0 20 -30 37 -67z"/>
</g>
</svg>
